<?xml version="1.0" standalone="no"?>
<!DOCTYPE svg PUBLIC "-//W3C//DTD SVG 20010904//EN"
 "http://www.w3.org/TR/2001/REC-SVG-20010904/DTD/svg10.dtd">
<svg version="1.0" xmlns="http://www.w3.org/2000/svg"
 width="512.000000pt" height="512.000000pt" viewBox="0 0 512.000000 512.000000"
 preserveAspectRatio="xMidYMid meet">

<g transform="translate(0.000000,512.000000) scale(0.100000,-0.100000)"
fill="#000000" stroke="none">
<path d="M2465 4831 c-71 -32 -2039 -1202 -2069 -1229 -16 -15 -39 -49 -52
-77 l-24 -50 0 -1514 c0 -1159 3 -1523 12 -1555 16 -55 99 -138 154 -154 32
-9 508 -12 2076 -12 1833 0 2039 2 2081 16 59 20 129 95 146 156 9 32 11 418
9 1563 l-3 1520 -22 40 c-11 22 -34 52 -50 67 -29 28 -1972 1183 -2058 1224
-62 29 -143 31 -200 5z m1136 -741 c556 -329 1017 -607 1025 -617 11 -15 13
-274 14 -1521 l0 -1503 -25 -24 c-24 -25 -24 -25 -240 -25 l-215 0 0 1335 0
1336 -25 24 -24 25 -1551 0 -1551 0 -24 -25 -25 -24 0 -1336 0 -1335 -215 0
c-216 0 -216 0 -240 25 l-25 24 0 1504 0 1505 22 21 c13 12 473 289 1023 615
732 435 1009 594 1032 595 25 1 245 -125 1044 -599z m399 -1210 l0 -80 -1440
0 -1440 0 0 80 0 80 1440 0 1440 0 0 -80z m0 -320 l0 -80 -1440 0 -1440 0 0
80 0 80 1440 0 1440 0 0 -80z m0 -1200 l0 -960 -200 0 -199 0 -5 353 c-2 193
-4 363 -3 377 0 14 1 192 1 397 1 360 0 372 -20 399 -11 15 -33 37 -48 48 -27
21 -38 21 -479 20 -249 0 -468 -1 -487 -1 -19 0 -238 1 -487 1 -441 1 -452 1
-479 -20 -15 -11 -37 -33 -48 -48 -20 -27 -21 -39 -20 -399 0 -205 1 -383 1
-397 1 -14 -1 -184 -3 -377 l-5 -353 -199 0 -200 0 0 960 0 960 1440 0 1440 0
0 -960z m-2160 345 c0 -131 1 -137 25 -160 24 -25 26 -25 215 -25 189 0 191 0
215 25 24 23 25 29 25 160 l0 135 80 0 80 0 0 -320 0 -320 -400 0 -400 0 0
320 0 320 80 0 80 0 0 -135z m320 55 l0 -80 -80 0 -80 0 0 80 0 80 80 0 80 0
0 -80z m640 -55 c0 -131 1 -137 25 -160 24 -25 26 -25 215 -25 189 0 191 0
215 25 24 23 25 29 25 160 l0 135 80 0 80 0 0 -320 0 -320 -400 0 -400 0 0
320 0 320 80 0 80 0 0 -135z m320 55 l0 -80 -80 0 -80 0 0 80 0 80 80 0 80 0
0 -80z m-1280 -855 c0 -131 1 -137 25 -160 24 -25 26 -25 215 -25 189 0 191 0
215 25 24 23 25 29 25 160 l0 135 80 0 80 0 0 -320 0 -320 -400 0 -400 0 0
320 0 320 80 0 80 0 0 -135z m320 55 l0 -80 -80 0 -80 0 0 80 0 80 80 0 80 0
0 -80z m640 -55 c0 -131 1 -137 25 -160 24 -25 26 -25 215 -25 189 0 191 0
215 25 24 23 25 29 25 160 l0 135 80 0 80 0 0 -320 0 -320 -400 0 -400 0 0
320 0 320 80 0 80 0 0 -135z m320 55 l0 -80 -80 0 -80 0 0 80 0 80 80 0 80 0
0 -80z"/>
<path d="M1865 4055 l-25 -24 0 -271 0 -271 25 -24 c15 -16 36 -25 55 -25 19
0 40 9 55 25 23 22 25 32 25 120 l0 95 560 0 560 0 0 -95 c0 -88 2 -98 25
-120 15 -16 36 -25 55 -25 19 0 40 9 55 25 l25 24 0 271 0 271 -25 24 c-32 33
-78 33 -110 0 -23 -22 -25 -32 -25 -120 l0 -95 -560 0 -560 0 0 95 c0 88 -2
98 -25 120 -15 16 -36 25 -55 25 -19 0 -40 -9 -55 -25z"/>
</g>
</svg>
