<?xml version="1.0" standalone="no"?>
<!DOCTYPE svg PUBLIC "-//W3C//DTD SVG 20010904//EN"
 "http://www.w3.org/TR/2001/REC-SVG-20010904/DTD/svg10.dtd">
<svg version="1.0" xmlns="http://www.w3.org/2000/svg"
 width="512.000000pt" height="512.000000pt" viewBox="0 0 512.000000 512.000000"
 preserveAspectRatio="xMidYMid meet">

<g transform="translate(0.000000,512.000000) scale(0.100000,-0.100000)"
fill="#000000" stroke="none">
<path d="M2175 4786 c-37 -17 -70 -52 -84 -89 -6 -16 -11 -103 -11 -202 l0
-175 -669 -2 c-658 -3 -670 -3 -697 -24 -15 -11 -37 -33 -48 -48 -21 -27 -21
-38 -21 -486 0 -448 0 -459 21 -486 44 -60 67 -69 185 -72 l109 -4 2 -1388 c3
-1385 3 -1389 24 -1416 11 -15 33 -37 48 -48 27 -21 28 -21 1526 -21 1498 0
1499 0 1526 21 15 11 37 33 48 48 21 27 21 31 24 1416 l2 1388 109 4 c118 3
141 12 185 72 21 27 21 38 21 486 0 448 0 459 -21 486 -11 15 -33 37 -48 48
-27 21 -39 21 -696 24 l-669 2 -3 190 c-3 206 -6 215 -72 264 -26 20 -41 21
-394 23 -291 2 -373 0 -397 -11z m545 -386 l0 -80 -160 0 -160 0 0 80 0 80
160 0 160 0 0 -80z m1440 -640 l0 -240 -1600 0 -1600 0 0 240 0 240 1600 0
1600 0 0 -240z m-320 -1840 l0 -1280 -1280 0 -1280 0 0 1280 0 1280 1280 0
1280 0 0 -1280z"/>
<path d="M1695 3026 c-41 -18 -83 -69 -90 -109 -3 -18 -4 -478 -3 -1024 3
-984 3 -992 24 -1019 39 -53 71 -69 134 -69 63 0 95 16 134 69 21 27 21 33 21
1046 0 1013 0 1019 -21 1046 -11 15 -32 37 -46 47 -33 25 -113 32 -153 13z"/>
<path d="M2495 3026 c-41 -18 -83 -69 -90 -109 -3 -18 -4 -478 -3 -1024 3
-984 3 -992 24 -1019 39 -53 71 -69 134 -69 63 0 95 16 134 69 21 27 21 33 21
1046 0 1013 0 1019 -21 1046 -11 15 -32 37 -46 47 -33 25 -113 32 -153 13z"/>
<path d="M3295 3026 c-41 -18 -83 -69 -90 -109 -3 -18 -4 -478 -3 -1024 3
-984 3 -992 24 -1019 39 -53 71 -69 134 -69 63 0 95 16 134 69 21 27 21 33 21
1046 0 1013 0 1019 -21 1046 -11 15 -32 37 -46 47 -33 25 -113 32 -153 13z"/>
</g>
</svg>
