<?xml version="1.0" standalone="no"?>
<!DOCTYPE svg PUBLIC "-//W3C//DTD SVG 20010904//EN"
 "http://www.w3.org/TR/2001/REC-SVG-20010904/DTD/svg10.dtd">
<svg version="1.0" xmlns="http://www.w3.org/2000/svg"
 width="512.000000pt" height="512.000000pt" viewBox="0 0 512.000000 512.000000"
 preserveAspectRatio="xMidYMid meet">

<g transform="translate(0.000000,512.000000) scale(0.100000,-0.100000)"
fill="#000000" stroke="none">
<path d="M2240 5103 c-36 -14 -72 -47 -90 -83 -19 -38 -20 -61 -20 -600 l0
-560 -72 0 c-118 -1 -175 -36 -199 -123 -13 -49 0 -95 41 -148 18 -22 31 -42
29 -44 -3 -2 -290 -115 -639 -251 -349 -135 -643 -253 -652 -262 -19 -16 -442
-744 -452 -779 -4 -13 -1 -34 8 -51 13 -25 42 -39 215 -107 l201 -78 0 -618
c0 -705 -9 -639 91 -677 30 -11 454 -176 943 -366 489 -190 901 -346 917 -346
24 0 1839 699 1910 735 14 8 29 22 33 30 3 9 6 292 6 629 l0 613 93 36 c305
117 307 118 323 149 9 17 12 38 8 51 -11 35 -432 762 -452 779 -9 9 -303 127
-652 263 -349 135 -636 248 -638 250 -3 2 9 21 25 42 42 54 57 102 44 150 -24
87 -81 122 -198 123 l-73 0 0 558 c0 522 -2 560 -19 598 -10 23 -34 52 -52 65
l-34 24 -315 2 c-173 1 -322 -1 -330 -4z m592 -758 c3 -564 4 -605 21 -622 14
-14 40 -19 132 -23 l114 -5 -267 -347 c-147 -191 -269 -347 -272 -347 -3 0
-125 156 -272 347 l-267 347 114 5 c92 4 118 9 132 23 17 17 18 58 21 622 l2
605 270 0 270 0 2 -605z m-606 -1177 c220 -287 246 -315 296 -329 54 -14 106
3 149 48 20 21 120 147 223 281 103 133 189 242 192 242 8 0 1085 -419 1102
-429 15 -9 15 -10 -3 -17 -11 -5 -381 -148 -822 -320 l-802 -311 -803 311
c-442 172 -812 316 -822 319 -10 4 -16 10 -13 13 6 6 1098 433 1109 434 4 0
91 -109 194 -242z m-641 -628 c466 -181 850 -332 852 -334 3 -3 -72 -136 -165
-298 -116 -200 -175 -292 -185 -290 -22 4 -1691 653 -1699 660 -3 4 49 102
115 217 67 116 143 247 170 293 26 45 51 82 56 82 4 0 390 -148 856 -330z
m2985 35 c93 -159 165 -293 162 -297 -15 -14 -1707 -667 -1714 -660 -22 22
-340 587 -332 590 281 113 1693 660 1703 659 7 -1 89 -132 181 -292z m-3103
-891 c359 -140 661 -254 671 -254 37 0 64 37 199 270 l138 239 3 -434 c1 -239
1 -630 0 -868 l-3 -433 -852 331 -852 330 -1 543 0 543 23 -7 c12 -4 316 -121
674 -260z m2883 -276 l0 -543 -853 -331 -852 -330 -3 433 c-1 238 -1 629 0
868 l3 434 139 -240 c76 -133 149 -247 162 -256 15 -9 35 -13 52 -10 15 3 322
121 682 261 360 140 658 256 663 256 4 0 7 -244 7 -542z"/>
<path d="M1300 4167 c-13 -7 -31 -24 -40 -39 -20 -36 -14 -49 101 -247 101
-175 122 -195 178 -172 28 12 51 47 51 78 0 19 -176 328 -205 360 -27 28 -55
35 -85 20z"/>
<path d="M3727 4138 c-50 -69 -197 -336 -197 -359 0 -29 29 -64 60 -74 31 -10
74 11 95 48 110 186 185 325 185 343 0 12 -9 33 -21 48 -16 20 -29 26 -59 26
-32 0 -43 -6 -63 -32z"/>
<path d="M761 3754 c-41 -52 -33 -66 131 -231 131 -131 156 -153 183 -153 16
0 38 6 47 14 22 17 39 61 31 83 -3 10 -71 84 -152 166 -135 136 -148 147 -183
147 -28 0 -42 -6 -57 -26z"/>
<path d="M4117 3632 c-134 -134 -147 -150 -147 -183 0 -44 34 -79 76 -79 25 0
54 24 182 153 164 165 172 179 131 231 -15 20 -29 26 -57 26 -35 0 -48 -11
-185 -148z"/>
</g>
</svg>
