<?xml version="1.0" standalone="no"?>
<!DOCTYPE svg PUBLIC "-//W3C//DTD SVG 20010904//EN"
 "http://www.w3.org/TR/2001/REC-SVG-20010904/DTD/svg10.dtd">
<svg version="1.0" xmlns="http://www.w3.org/2000/svg"
 width="512.000000pt" height="512.000000pt" viewBox="0 0 512.000000 512.000000"
 preserveAspectRatio="xMidYMid meet">

<g transform="translate(0.000000,512.000000) scale(0.100000,-0.100000)"
fill="#000000" stroke="none">
<path d="M3885 4834 c-208 -79 -336 -132 -347 -145 -16 -19 -18 -47 -18 -258
l0 -237 -167 168 c-92 92 -172 168 -178 168 -13 0 -105 -92 -105 -106 0 -5 38
-48 85 -94 l86 -85 -228 -5 -228 -5 -67 -32 c-93 -44 -151 -100 -196 -191
l-37 -76 -5 -380 -5 -381 -778 -273 -779 -272 -356 -316 c-197 -174 -367 -327
-380 -341 -25 -27 -29 -70 -8 -98 7 -10 186 -100 397 -200 l384 -182 5 -326
c4 -272 7 -329 20 -341 18 -17 1533 -657 1570 -663 27 -5 1562 636 1590 663
13 12 16 69 20 341 l5 325 380 180 c209 98 388 188 398 200 29 34 22 76 -20
116 -53 49 -714 636 -722 640 -3 2 -355 126 -781 276 l-775 272 -3 344 c-3
404 -2 411 72 485 70 69 94 75 332 75 l199 0 -88 -88 c-48 -48 -87 -91 -87
-95 0 -8 101 -106 110 -107 3 0 81 76 173 168 l167 168 0 -157 c0 -135 2 -160
18 -178 16 -19 669 -271 704 -271 35 0 684 251 701 271 16 19 17 56 17 449 0
393 -1 430 -17 449 -20 23 -670 272 -707 270 -12 -1 -169 -57 -351 -125z m562
-116 c106 -40 193 -75 193 -78 0 -12 -393 -152 -413 -146 -42 10 -387 141
-387 146 0 7 379 149 399 149 8 1 101 -32 208 -71z m-515 -289 l228 -84 0
-314 c0 -246 -3 -312 -12 -309 -7 2 -115 42 -240 89 l-228 84 0 314 c0 246 3
312 13 309 6 -3 114 -43 239 -89z m868 -222 l0 -312 -233 -88 c-129 -48 -237
-87 -240 -87 -4 0 -7 141 -7 313 l0 312 233 87 c127 48 235 87 240 87 4 1 7
-140 7 -312z m-2240 -1327 l79 0 3 63 3 63 635 -223 c349 -122 639 -224 643
-225 5 -2 -300 -127 -677 -278 l-686 -274 -686 274 c-551 221 -681 276 -662
283 13 4 302 105 643 225 l620 217 3 -62 3 -63 79 0z m-832 -713 l684 -274
-327 -294 c-180 -162 -331 -295 -336 -297 -9 -4 -1337 622 -1352 637 -4 4 124
124 285 268 l293 260 35 -14 c19 -7 342 -136 718 -286z m2795 -36 c114 -102
204 -188 199 -193 -8 -8 -1281 -614 -1324 -630 -26 -9 -42 4 -358 288 l-331
298 718 287 718 287 85 -77 c47 -42 179 -159 293 -260z m-2045 -1425 l-3 -343
-677 285 -678 285 0 238 c0 132 2 239 5 239 3 0 143 -65 312 -145 168 -80 316
-145 329 -145 25 0 30 4 444 377 l265 239 3 -343 c1 -189 1 -498 0 -687z m549
685 c219 -196 310 -271 327 -271 13 0 162 65 330 145 169 80 309 145 312 145
2 0 4 -107 4 -239 l0 -238 -672 -283 c-370 -156 -676 -285 -680 -287 -5 -2 -8
308 -8 688 l0 693 43 -40 c23 -23 178 -163 344 -313z"/>
<path d="M2480 2640 l0 -80 80 0 80 0 0 80 0 80 -80 0 -80 0 0 -80z"/>
<path d="M2480 2320 l0 -80 80 0 80 0 0 80 0 80 -80 0 -80 0 0 -80z"/>
</g>
</svg>
